<svg xmlns="http://www.w3.org/2000/svg" viewBox="0 0 64 64">
  <defs>
    <radialGradient id="a" cx="0" cy="0" r="1" gradientUnits="userSpaceOnUse" gradientTransform="rotate(90 1 29)scale(24)">
      <stop offset="0" stop-color="#e6f0ff"/>
      <stop offset=".55" stop-color="#bfd3ff" stop-opacity=".95"/>
      <stop offset="1" stop-color="#8fa9ff" stop-opacity=".85"/>
    </radialGradient>
    <filter id="b" x="-30%" y="-30%" width="160%" height="160%">
      <feGaussianBlur stdDeviation="1.6"/>
    </filter>
  </defs>
  <path d="M41.5 10.5c-7.5 1.2-13.3 7.7-13.3 15.6 0 8.7 7.1 15.8 15.8 15.8 2.2 0 4.3-.4 6.2-1.2-2.7 6.9-9.5 11.8-17.5 11.8-10.4 0-18.9-8.5-18.9-18.9 0-9.6 7.2-17.5 16.5-18.8 3.8-.5 7.4.2 10.2 1.7z" fill="url(#a)" filter="url(#b)" opacity=".95"/>
  <path d="M41.5 12.5c-6.8 1.3-12 7.3-12 14.6 0 8 6.5 14.5 14.5 14.5q2.7 0 5.1-.9c-2.7 5.4-8.3 9.1-14.7 9.1-9.2 0-16.6-7.4-16.6-16.6 0-8.5 6.4-15.5 14.7-16.5 3.6-.4 6.9.3 9 .8z" fill="url(#a)" opacity=".95"/>
</svg>
