<svg
  xmlns="http://www.w3.org/2000/svg"
  width="64"
  height="64"
  viewBox="0 0 64 64"
  fill="none"
>
  <defs>
    <radialGradient
      id="moonWash"
      cx="0"
      cy="0"
      r="1"
      gradientUnits="userSpaceOnUse"
      gradientTransform="translate(30 28) rotate(90) scale(24)"
    >
      <stop offset="0" stop-color="#E6F0FF" stop-opacity="1" />
      <stop offset="0.55" stop-color="#BFD3FF" stop-opacity="0.95" />
      <stop offset="1" stop-color="#8FA9FF" stop-opacity="0.85" />
    </radialGradient>
    <filter id="waterBlur" x="-30%" y="-30%" width="160%" height="160%">
      <feGaussianBlur stdDeviation="1.6" />
    </filter>
  </defs>

  <!-- Soft watercolor crescent -->
  <path
    d="M41.5 10.5c-7.5 1.2-13.3 7.7-13.3 15.6 0 8.7 7.1 15.8 15.8 15.8 2.2 0 4.3-.4 6.2-1.2-2.7 6.9-9.5 11.8-17.5 11.8-10.4 0-18.9-8.5-18.9-18.9 0-9.6 7.2-17.5 16.5-18.8 3.8-.5 7.4.2 10.2 1.7z"
    fill="url(#moonWash)"
    filter="url(#waterBlur)"
    opacity="0.95"
  />

  <path
    d="M41.5 12.5c-6.8 1.3-12 7.3-12 14.6 0 8 6.5 14.5 14.5 14.5 1.8 0 3.5-.3 5.1-.9-2.7 5.4-8.3 9.1-14.7 9.1-9.2 0-16.6-7.4-16.6-16.6 0-8.5 6.4-15.5 14.7-16.5 3.6-.4 6.9.3 9 .8z"
    fill="url(#moonWash)"
    opacity="0.95"
  />
</svg>

